<svg width="28" height="31" viewBox="0 0 28 31" fill="none" xmlns="http://www.w3.org/2000/svg">
<path d="M2.26111 11.034C2.28982 10.6706 2.45223 10.3316 2.71598 10.0844C2.97974 9.83714 3.32549 9.69991 3.68438 9.69998H23.533C23.8919 9.69991 24.2377 9.83714 24.5014 10.0844C24.7652 10.3316 24.9276 10.6706 24.9563 11.034L26.2082 26.868C26.2398 27.267 26.1896 27.6684 26.061 28.0467C25.9323 28.4251 25.7279 28.7723 25.4606 29.0665C25.1934 29.3608 24.869 29.5956 24.5081 29.7562C24.1471 29.9169 23.7573 29.9999 23.3631 30H3.85426C3.46014 29.9999 3.07032 29.9169 2.70933 29.7562C2.34834 29.5956 2.02401 29.3608 1.75675 29.0665C1.48949 28.7723 1.2851 28.4251 1.15643 28.0467C1.02777 27.6684 0.977622 27.267 1.00915 26.868L2.25968 11.034H2.26111Z" stroke="white" stroke-width="2" stroke-linecap="round" stroke-linejoin="round"/>
<path d="M19.3189 14.05V6.8C19.3189 5.26174 18.7173 3.78649 17.6464 2.69878C16.5755 1.61107 15.1231 1 13.6087 1C12.0943 1 10.6418 1.61107 9.57098 2.69878C8.50011 3.78649 7.8985 5.26174 7.8985 6.8V14.05" stroke="white" stroke-width="2" stroke-linecap="round" stroke-linejoin="round"/>
</svg>
