<svg width="44" height="36" viewBox="0 0 44 36" fill="none" xmlns="http://www.w3.org/2000/svg">
<path d="M18.9382 6.29052L18.4335 9.18957C18.4168 9.28555 18.4273 9.38429 18.4638 9.47461C18.5003 9.56493 18.5613 9.64324 18.64 9.70069C18.7187 9.75814 18.8119 9.79243 18.909 9.79969C19.0062 9.80695 19.1034 9.78689 19.1897 9.74178L21.7976 8.3788L24.3988 9.7544C24.4849 9.79992 24.5821 9.82045 24.6792 9.81367C24.7764 9.80689 24.8697 9.77307 24.9487 9.71604C25.0276 9.65901 25.089 9.58103 25.126 9.49092C25.163 9.40081 25.174 9.30215 25.1578 9.20611L24.6674 6.3047L26.7794 4.25585C26.8494 4.18801 26.8989 4.10196 26.9225 4.00742C26.9461 3.91289 26.9428 3.81364 26.9129 3.72091C26.883 3.62817 26.8278 3.54565 26.7534 3.48266C26.6791 3.41968 26.5886 3.37874 26.4922 3.36449L23.5816 2.93404L22.2857 0.292159C22.2428 0.204695 22.1763 0.130982 22.0937 0.0793522C22.0111 0.0277225 21.9156 0.000235839 21.8182 0H21.8169C21.7197 2.86449e-06 21.6244 0.0271492 21.5418 0.0783821C21.4591 0.129615 21.3925 0.2029 21.3492 0.289984L20.0406 2.92542L17.1275 3.34151C17.031 3.35529 16.9404 3.39578 16.8657 3.45841C16.7911 3.52103 16.7354 3.60329 16.7051 3.69588C16.6748 3.78847 16.6709 3.8877 16.6941 3.98235C16.7172 4.07701 16.7663 4.1633 16.8359 4.23148L18.9382 6.29052ZM20.46 3.92052C20.5439 3.90855 20.6235 3.87637 20.6921 3.82677C20.7608 3.77716 20.8163 3.7116 20.8539 3.63576L21.8141 1.70204L22.7649 3.64011C22.8022 3.71611 22.8574 3.78191 22.9258 3.83183C22.9941 3.88176 23.0736 3.91432 23.1574 3.9267L25.2932 4.24227L23.7435 5.74623C23.6827 5.80519 23.6372 5.87804 23.6109 5.9585C23.5845 6.03896 23.5781 6.12462 23.5922 6.2081L23.9521 8.33694L22.0435 7.32739C21.9686 7.28782 21.8853 7.26705 21.8006 7.26685C21.7159 7.26665 21.6325 7.28704 21.5575 7.32626L19.644 8.32624L20.0142 6.19914C20.0287 6.11574 20.0227 6.03007 19.9967 5.9495C19.9707 5.86894 19.9256 5.79589 19.8651 5.73666L18.3228 4.22582L20.46 3.92052Z" fill="#F7FA00"/>
<path d="M32.5051 8.2048L32.0618 10.7517C32.0451 10.8477 32.0556 10.9465 32.0921 11.0368C32.1286 11.1271 32.1896 11.2055 32.2683 11.2629C32.347 11.3204 32.4402 11.3547 32.5373 11.3619C32.6345 11.3692 32.7317 11.3491 32.8181 11.304L35.1092 10.1066L37.3945 11.3151C37.4806 11.3606 37.5777 11.3811 37.6749 11.3744C37.772 11.3676 37.8654 11.3338 37.9443 11.2767C38.0233 11.2197 38.0847 11.1417 38.1216 11.0516C38.1586 10.9615 38.1696 10.8628 38.1535 10.7668L37.7227 8.21786L39.5781 6.41782C39.6481 6.34998 39.6976 6.26393 39.7212 6.1694C39.7448 6.07486 39.7415 5.97562 39.7116 5.88288C39.6817 5.79015 39.6265 5.70762 39.5521 5.64463C39.4778 5.58165 39.3873 5.54071 39.2909 5.52646L36.7337 5.14858L35.5952 2.82732C35.5523 2.73984 35.4858 2.66612 35.4031 2.61449C35.3205 2.56285 35.2251 2.53538 35.1276 2.53516H35.1264C35.0292 2.53516 34.9339 2.56231 34.8512 2.61354C34.7686 2.66477 34.7019 2.73806 34.6587 2.82514L33.509 5.14013L30.9499 5.50566C30.8535 5.51944 30.7628 5.55992 30.6882 5.62253C30.6135 5.68515 30.5579 5.76739 30.5276 5.85997C30.4972 5.95255 30.4934 6.05177 30.5165 6.14641C30.5396 6.24106 30.5887 6.32735 30.6583 6.39554L32.5051 8.2048ZM33.9283 6.13549C34.0122 6.12352 34.0918 6.09135 34.1604 6.04174C34.2291 5.99213 34.2846 5.92658 34.3222 5.85073L35.1234 4.2372L35.9169 5.85465C35.9542 5.93065 36.0094 5.99645 36.0777 6.04637C36.1461 6.0963 36.2256 6.12885 36.3093 6.14124L38.0915 6.40459L36.7984 7.65904C36.7377 7.71799 36.6921 7.79082 36.6658 7.87126C36.6394 7.95171 36.633 8.03735 36.6472 8.12082L36.9474 9.89727L35.3548 9.05509C35.2799 9.01546 35.1966 8.99464 35.1119 8.99443C35.0273 8.99422 34.9438 9.01462 34.8688 9.05387L33.2721 9.88831L33.581 8.1129C33.5955 8.0295 33.5895 7.94383 33.5635 7.86326C33.5376 7.7827 33.4924 7.70965 33.4319 7.65042L32.1449 6.39041L33.9283 6.13549Z" fill="#F7FA00"/>
<path d="M5.88452 8.2048L5.44137 10.7517C5.42466 10.8477 5.43514 10.9465 5.47164 11.0368C5.50813 11.1272 5.56918 11.2055 5.64788 11.263C5.72657 11.3205 5.81978 11.3548 5.91695 11.362C6.01412 11.3693 6.11139 11.3492 6.19774 11.304L8.4888 10.1066L10.7743 11.3151C10.8604 11.3606 10.9575 11.3812 11.0547 11.3744C11.1519 11.3676 11.2452 11.3338 11.3242 11.2768C11.4032 11.2198 11.4646 11.1418 11.5016 11.0516C11.5385 10.9615 11.5495 10.8628 11.5334 10.7668L11.1025 8.21786L12.958 6.41782C13.0279 6.34998 13.0774 6.26393 13.101 6.1694C13.1246 6.07486 13.1213 5.97562 13.0914 5.88288C13.0615 5.79015 13.0063 5.70762 12.932 5.64463C12.8576 5.58165 12.7671 5.54071 12.6708 5.52646L10.1129 5.14823L8.9746 2.82732C8.93169 2.73985 8.86516 2.66614 8.78254 2.61451C8.69992 2.56288 8.6045 2.53539 8.50708 2.53516H8.50577C8.40855 2.53516 8.31326 2.56231 8.23063 2.61354C8.14799 2.66477 8.08131 2.73806 8.03808 2.82514L6.88841 5.14013L4.3293 5.50566C4.23286 5.51945 4.1422 5.55995 4.06758 5.62256C3.99295 5.68518 3.93733 5.76743 3.907 5.86C3.87667 5.95258 3.87284 6.05179 3.89594 6.14643C3.91905 6.24107 3.96817 6.32736 4.03775 6.39554L5.88452 8.2048ZM7.3079 6.13549C7.39177 6.12359 7.47149 6.09145 7.54018 6.04185C7.60886 5.99226 7.66445 5.92669 7.70214 5.85082L8.50342 4.23729L9.29679 5.85474C9.33408 5.93075 9.38929 5.99655 9.45767 6.04648C9.52605 6.0964 9.60554 6.12896 9.68929 6.14133L11.4715 6.40468L10.1784 7.65913C10.1176 7.71806 10.0721 7.79089 10.0457 7.87134C10.0194 7.95178 10.013 8.03743 10.0271 8.12091L10.3273 9.89736L8.73466 9.05517C8.65984 9.01555 8.57649 8.99473 8.49183 8.99452C8.40716 8.9943 8.32371 9.0147 8.24869 9.05396L6.65169 9.88831L6.96047 8.1129C6.97498 8.02951 6.969 7.94384 6.94304 7.86328C6.91709 7.78271 6.87193 7.70966 6.81148 7.65042L5.52448 6.39041L7.3079 6.13549Z" fill="#F7FA00"/>
<path d="M21.8445 11.8335C20.7344 11.8348 19.6702 12.2763 18.8853 13.0612C18.1003 13.8462 17.6588 14.9104 17.6576 16.0205V18.4637C17.6576 19.5741 18.0987 20.6391 18.8839 21.4243C19.6691 22.2095 20.7341 22.6506 21.8445 22.6506C22.9549 22.6506 24.0199 22.2095 24.8051 21.4243C25.5903 20.6391 26.0314 19.5741 26.0314 18.4637V16.0205C26.0302 14.9104 25.5887 13.8462 24.8037 13.0612C24.0188 12.2763 22.9546 11.8348 21.8445 11.8335ZM24.9871 18.4637C24.9871 19.2972 24.656 20.0965 24.0666 20.6858C23.4773 21.2752 22.678 21.6063 21.8445 21.6063C21.011 21.6063 20.2117 21.2752 19.6224 20.6858C19.033 20.0965 18.7019 19.2972 18.7019 18.4637V16.0205C18.7019 15.187 19.033 14.3877 19.6224 13.7984C20.2117 13.209 21.011 12.8779 21.8445 12.8779C22.678 12.8779 23.4773 13.209 24.0666 13.7984C24.656 14.3877 24.9871 15.187 24.9871 16.0205V18.4637Z" fill="#F7FA00"/>
<path d="M34.8381 13.9041C33.8163 13.9052 32.8368 14.3116 32.1143 15.0341C31.3918 15.7565 30.9854 16.7361 30.9843 17.7578V19.9788C30.9843 21.0009 31.3903 21.9811 32.113 22.7039C32.8357 23.4266 33.816 23.8326 34.8381 23.8326C35.8601 23.8326 36.8404 23.4266 37.5631 22.7039C38.2858 21.9811 38.6918 21.0009 38.6918 19.9788V17.7578C38.6907 16.7361 38.2843 15.7565 37.5618 15.0341C36.8393 14.3116 35.8598 13.9052 34.8381 13.9041ZM37.6475 19.9787C37.6475 20.7238 37.3515 21.4384 36.8246 21.9653C36.2977 22.4922 35.5832 22.7881 34.8381 22.7881C34.0929 22.7881 33.3784 22.4922 32.8515 21.9653C32.3246 21.4384 32.0286 20.7238 32.0286 19.9787V17.7577C32.0286 17.0126 32.3246 16.298 32.8515 15.7712C33.3784 15.2443 34.0929 14.9483 34.8381 14.9483C35.5832 14.9483 36.2977 15.2443 36.8246 15.7712C37.3515 16.298 37.6475 17.0126 37.6475 17.7577V19.9787Z" fill="#F7FA00"/>
<path d="M39.28 24.6127H37.8759C37.7501 24.6126 37.6295 24.5626 37.5406 24.4736C37.4516 24.3847 37.4016 24.2641 37.4014 24.1383C37.4014 24.0154 37.358 23.8964 37.2788 23.8023C37.1997 23.7082 37.0899 23.6451 36.9688 23.624C36.8476 23.6029 36.7229 23.6253 36.6167 23.6871C36.5104 23.7489 36.4294 23.8463 36.3878 23.962L35.8294 25.5177C35.7563 25.7215 35.6217 25.8976 35.4442 26.0216C35.2667 26.1457 35.0551 26.2115 34.8386 26.2101C34.622 26.2087 34.4113 26.1401 34.2354 26.0138C34.0596 25.8875 33.9272 25.7098 33.8567 25.505L33.3228 23.9559C33.2939 23.8722 33.2442 23.7972 33.1784 23.7379C33.1126 23.6787 33.0328 23.6372 32.9465 23.6173C32.8602 23.5974 32.7703 23.5998 32.6851 23.6242C32.6 23.6486 32.5225 23.6943 32.4599 23.7569L32.4473 23.7694C32.3494 23.8673 32.2944 24.0001 32.2943 24.1386C32.2942 24.2644 32.2441 24.385 32.1552 24.4739C32.0662 24.5628 31.9457 24.6128 31.8199 24.613H30.3956C30.1702 24.613 29.9451 24.6302 29.7223 24.6643C28.874 23.9835 27.8186 23.6127 26.7309 23.6134H25.1864C25.0341 23.6134 24.888 23.5529 24.7803 23.4452C24.6726 23.3375 24.612 23.1914 24.612 23.039C24.612 22.9161 24.5686 22.7971 24.4895 22.703C24.4103 22.6089 24.3005 22.5458 24.1794 22.5247C24.0582 22.5037 23.9336 22.526 23.8273 22.5878C23.721 22.6497 23.64 22.747 23.5984 22.8627L22.9846 24.5742C22.9005 24.8085 22.7457 25.011 22.5416 25.1536C22.3375 25.2962 22.0942 25.3719 21.8452 25.3703C21.5962 25.3687 21.3539 25.2899 21.1516 25.1447C20.9494 24.9995 20.7972 24.795 20.7161 24.5596L20.1287 22.8552C20.0998 22.7714 20.0501 22.6963 19.9842 22.6371C19.9183 22.5778 19.8385 22.5363 19.7521 22.5165C19.6658 22.4966 19.5758 22.499 19.4906 22.5235C19.4055 22.5481 19.328 22.5938 19.2654 22.6566L19.2515 22.6704C19.1539 22.7683 19.0991 22.9009 19.0991 23.0391C19.0991 23.1915 19.0385 23.3376 18.9308 23.4453C18.8231 23.553 18.677 23.6135 18.5247 23.6135H16.9581C15.8702 23.6128 14.8146 23.9836 13.9662 24.6648C13.7436 24.6305 13.5186 24.6132 13.2934 24.613H11.8893C11.7635 24.6128 11.6429 24.5628 11.554 24.4739C11.465 24.385 11.415 24.2644 11.4148 24.1386C11.4148 24.0156 11.3714 23.8966 11.2922 23.8026C11.2131 23.7085 11.1033 23.6453 10.9822 23.6243C10.861 23.6032 10.7363 23.6255 10.6301 23.6874C10.5238 23.7492 10.4428 23.8465 10.4012 23.9623L9.84308 25.5177C9.76992 25.7215 9.6353 25.8976 9.45781 26.0216C9.28031 26.1456 9.0687 26.2115 8.85218 26.2101C8.63566 26.2087 8.42492 26.1401 8.24904 26.0138C8.07316 25.8875 7.94082 25.7098 7.87029 25.505L7.33636 23.9559C7.3075 23.8722 7.25781 23.7971 7.19196 23.7379C7.12612 23.6786 7.04628 23.6371 6.95997 23.6172C6.87365 23.5973 6.78369 23.5997 6.69855 23.6241C6.61341 23.6486 6.53589 23.6943 6.47328 23.757L6.46075 23.7695C6.3629 23.8674 6.30793 24.0002 6.30793 24.1386C6.30779 24.2644 6.25776 24.3849 6.16882 24.4739C6.07989 24.5628 5.9593 24.6128 5.83353 24.613H4.40911C3.24019 24.6143 2.11954 25.0792 1.29297 25.9058C0.466394 26.7323 0.00140507 27.8529 0 29.0218V35.1298C0 35.2683 0.0550152 35.4011 0.152943 35.499C0.25087 35.5969 0.383689 35.6519 0.522179 35.6519H43.1668C43.3053 35.6519 43.4381 35.5969 43.5361 35.499C43.634 35.4011 43.689 35.2683 43.689 35.1298V29.0218C43.6877 27.8529 43.2227 26.7322 42.3962 25.9056C41.5696 25.079 40.4489 24.6141 39.28 24.6127ZM12.1604 28.4111V34.6076H1.04436V29.0218C1.04537 28.1298 1.4002 27.2745 2.03099 26.6437C2.66178 26.0129 3.51703 25.6581 4.40911 25.6571H5.83335C6.15141 25.6575 6.46149 25.5576 6.7194 25.3715L6.88276 25.8457C7.02378 26.2548 7.28833 26.6101 7.63988 26.8625C7.99144 27.1148 8.41266 27.2518 8.84541 27.2546C9.27816 27.2573 9.7011 27.1257 10.0558 26.8778C10.4106 26.6299 10.6796 26.2781 10.8258 25.8707L11.0047 25.3725C11.2487 25.5482 11.5396 25.6472 11.8402 25.6566C11.8496 25.6566 11.8593 25.6573 11.869 25.6573H13.0329C12.4644 26.463 12.1596 27.425 12.1604 28.4111ZM30.4842 34.6076H13.2048V28.4111C13.2059 27.416 13.6017 26.462 14.3054 25.7583C15.009 25.0547 15.963 24.6589 16.9581 24.6578H18.5247C18.8879 24.6582 19.2406 24.5359 19.5255 24.3106L19.7285 24.9001C19.8801 25.34 20.1645 25.7219 20.5424 25.9932C20.9204 26.2646 21.3732 26.4119 21.8384 26.4148C22.3037 26.4178 22.7583 26.2763 23.1397 26.0098C23.521 25.7433 23.8103 25.365 23.9674 24.9271L24.188 24.3123C24.4586 24.5255 24.7904 24.6463 25.1348 24.6569C25.1445 24.6575 25.1543 24.6578 25.1642 24.6578H26.7307C27.7258 24.6589 28.6799 25.0547 29.3835 25.7584C30.0871 26.4621 30.4829 27.4161 30.484 28.4112L30.4842 34.6076ZM42.6446 34.6076H31.5286V28.4111C31.5294 27.4249 31.2245 26.4628 30.6559 25.6571H31.8199C32.1379 25.6575 32.4479 25.5576 32.7058 25.3715L32.8692 25.8457C33.0102 26.2548 33.2748 26.6101 33.6263 26.8625C33.9779 27.1148 34.3991 27.2518 34.8318 27.2546C35.2646 27.2573 35.6875 27.1257 36.0423 26.8778C36.397 26.6299 36.666 26.2781 36.8122 25.8707L36.9911 25.3725C37.2351 25.5482 37.526 25.6472 37.8266 25.6566C37.8361 25.6566 37.8457 25.6573 37.8553 25.6573H39.2796C40.1717 25.6583 41.027 26.013 41.6578 26.6438C42.2887 27.2745 42.6436 28.1298 42.6446 29.0218V34.6076Z" fill="#F7FA00"/>
<path d="M4.99744 17.7578V19.9788C4.99744 20.4849 5.09712 20.986 5.29079 21.4536C5.48446 21.9212 5.76832 22.346 6.12618 22.7039C6.48404 23.0617 6.90887 23.3456 7.37643 23.5392C7.84399 23.7329 8.34512 23.8326 8.85121 23.8326C9.35729 23.8326 9.85842 23.7329 10.326 23.5392C10.7935 23.3456 11.2184 23.0617 11.5762 22.7039C11.9341 22.346 12.218 21.9212 12.4116 21.4536C12.6053 20.986 12.705 20.4849 12.705 19.9788V17.7578C12.705 16.7357 12.299 15.7555 11.5762 15.0328C10.8535 14.3101 9.87329 13.9041 8.85121 13.9041C7.82912 13.9041 6.8489 14.3101 6.12618 15.0328C5.40346 15.7555 4.99744 16.7357 4.99744 17.7578ZM11.6606 17.7578V19.9788C11.6606 20.7239 11.3646 21.4385 10.8378 21.9654C10.3109 22.4922 9.59631 22.7882 8.85121 22.7882C8.1061 22.7882 7.39152 22.4922 6.86465 21.9654C6.33779 21.4385 6.04179 20.7239 6.04179 19.9788V17.7578C6.04179 17.0127 6.33779 16.2981 6.86465 15.7713C7.39152 15.2444 8.1061 14.9484 8.85121 14.9484C9.59631 14.9484 10.3109 15.2444 10.8378 15.7713C11.3646 16.2981 11.6606 17.0127 11.6606 17.7578Z" fill="#F7FA00"/>
</svg>
