<svg width="343" height="93" viewBox="0 0 343 93" fill="none" xmlns="http://www.w3.org/2000/svg">
<path d="M129.302 68.5364L128.657 69.4425L127.947 70.2838L127.173 71.0604L126.27 71.837L125.302 72.4842L124.27 73.1314L123.044 73.7139L121.431 74.2963L119.753 74.6846L118.205 74.9435H116.592L115.108 74.8141L113.624 74.5552L112.269 74.0374L111.043 73.455L109.881 72.6136L108.849 71.6429L108.01 70.5427L107.3 69.313L106.849 67.9539L106.526 66.4007L106.462 64.7828L106.591 62.9706L106.849 61.741L107.236 60.5761L107.688 59.4759L108.333 58.3757L108.978 57.4049L109.752 56.4988L110.656 55.7222L111.623 55.075L112.591 54.5573L113.688 54.169L114.849 53.9101L116.011 53.8454L117.237 53.9748L118.463 54.2984L119.753 54.8162L121.044 55.5281L110.462 61.6116L115.688 70.931L141.562 56.1752L140.207 52.2274L138.336 48.6679L135.948 45.4967L133.238 42.7139L130.206 40.384L126.851 38.5719L123.302 37.1481L119.56 36.3068L115.753 35.9185L111.946 36.0479L108.139 36.6951L104.332 37.9247L100.784 39.6721L97.364 42.0667L94.2669 45.1084L91.4279 48.6679L89.2987 52.4863L87.8147 56.3047L86.9114 60.1878L86.6533 64.0709L86.9114 67.8245L87.6856 71.5134L88.9116 75.0082L90.5246 78.3736L92.5893 81.48L94.9121 84.3276L97.5575 86.7869L100.461 88.9226L103.623 90.67L106.913 91.9644L110.397 92.741L113.946 92.9999L116.398 92.8057L118.785 92.4821L121.044 92.0938L123.237 91.5761L125.302 90.9289L127.302 90.217L129.173 89.3757L130.98 88.4696L132.658 87.4988L134.271 86.3986L135.755 85.2337L137.239 84.0688L138.529 82.8391L139.82 81.48L140.916 80.121L141.949 78.6972L129.883 67.6304L129.302 68.5364Z" fill="white"/>
<path d="M172.081 62.7763L171.048 62.8411L170.145 62.7763L169.306 62.5822L168.596 62.388L167.951 62.0644L167.37 61.6761L166.854 61.2231L166.403 60.7054L166.016 60.0582L165.693 59.411L165.435 58.6991L164.983 57.0811L164.725 55.269L164.596 53.2628L164.532 48.7972L164.596 43.9434L164.532 38.7659L143.884 38.6365L143.626 44.8494L143.691 50.5446L144.078 55.7221L144.723 60.5112L145.756 64.7179L147.111 68.4715L148.659 71.7722L150.595 74.6198L151.692 75.8494L152.853 76.9496L154.014 77.9851L155.305 78.8264L156.66 79.6031L158.015 80.2502L159.499 80.768L161.047 81.221L164.338 81.674L167.822 81.7388L171.629 81.2857L175.629 80.3797V62.1939L173.113 62.7116L172.081 62.7763Z" fill="white"/>
<path d="M199.567 38.1189H178.855V90.9289H199.567V38.1189Z" fill="white"/>
<path d="M279.768 50.8039L278.671 48.2152L277.252 45.8206L275.51 43.4908L273.445 41.4845L271.058 39.7371L268.348 38.3133L266.864 37.7956L265.315 37.3426L263.767 37.019L262.025 36.8248H258.476L254.734 37.472L250.669 38.7664L246.346 40.7726L241.829 43.4908L238.926 41.0962L235.829 39.2194L232.667 37.8603L229.376 36.9542L226.086 36.5012H222.795L219.569 36.9542L216.536 37.8603L213.633 39.1547L210.923 40.8373L208.536 42.8436L206.535 45.3029L205.568 46.662L204.793 48.0858L204.148 49.639L203.567 51.257L202.793 54.687L202.535 58.4407V90.8645H223.247V58.4407L223.569 57.8582L224.021 57.3405L224.408 56.8874L224.924 56.4344L225.505 56.1108L226.086 55.7872L226.666 55.5931L227.247 55.5284L227.828 55.4636L228.15 55.5284L228.473 55.5931L228.796 55.6578L229.054 55.7225L229.376 55.8519L229.634 56.0461L229.957 56.2403L230.215 56.4344L230.731 57.0169L231.183 57.6641L231.699 58.4407V90.8645H252.346V58.4407L252.669 57.6641L253.056 57.0169L253.508 56.4991L253.959 56.0461L254.217 55.8519L254.475 55.7225L254.734 55.5931L254.992 55.5284L255.314 55.3989H255.572L255.83 55.3342H256.153L256.411 55.3989H256.669L257.25 55.5931L257.831 55.8519L258.347 56.1755L258.863 56.6286L259.315 57.1463L259.766 57.7288L260.153 58.4407V90.8645H280.865V55.9167L280.478 53.3279L279.768 50.8039Z" fill="white"/>
<path d="M342.484 68.0836L342.355 65.5596L342.096 63.3591L341.838 61.2882L341.387 59.3466L340.871 57.4051L340.161 55.3988L339.322 53.2631L338.096 50.545L336.677 48.0857L335.193 45.8852L333.58 44.0084L331.902 42.3905L330.095 41.0314L328.224 39.8665L326.289 38.8957L324.288 38.1838L322.224 37.6013L320.094 37.213L317.901 36.9541L315.707 36.8247H313.449L308.997 37.0836L304.48 37.8602L300.351 39.2193L296.608 41.1608L293.253 43.5554L290.35 46.3383L287.898 49.5095L285.898 52.9395L284.414 56.6285L283.446 60.4468L282.994 64.3299L283.123 68.213L283.768 72.0961L285.059 75.8497L286.93 79.4092L288.156 81.1566L289.511 82.8393L292.673 85.8163L293.963 86.8518L295.382 87.6932L296.737 88.4051L298.221 88.9875L299.641 89.57L301.125 89.9583L302.673 90.2819L304.222 90.5408L307.448 90.7996L310.739 90.8644L317.449 90.6055V71.1253L315.578 71.7078L313.836 72.0314H312.223L311.448 71.9019L310.674 71.7725L310.029 71.5784L309.384 71.3195L308.739 71.0606L308.158 70.6723L307.642 70.3487L307.125 69.8957L306.222 68.9249L305.512 67.8894L304.996 66.7892L304.674 65.5596L304.48 64.3299V63.7475L304.545 63.1003L304.609 62.5178L304.803 61.9353L304.996 61.3529L305.19 60.7704L305.512 60.2527L305.835 59.6702L306.416 59.023L307.061 58.4406L307.835 57.9228L308.609 57.4698L309.448 57.0815L310.287 56.7579L311.255 56.5637L312.158 56.4343H313.062H314.029L314.933 56.5637L315.771 56.8226L316.675 57.1462L317.514 57.5992L318.223 58.117L318.933 58.7642L319.191 59.023L319.514 59.3466L319.772 59.7349L320.03 60.1232L320.611 60.9646L321.127 61.8059V90.7996H342.484V70.9312V68.0836Z" fill="white"/>
<path d="M32.003 48.7973L33.2289 45.7556L34.5194 43.0374L35.8743 40.5781L37.2938 38.4424L38.0681 37.4717L38.8423 36.6303L36.1324 26.4696L35.3581 24.075L34.9065 22.9748L34.3903 21.9393L33.8741 20.9038L33.2934 19.9978L32.6482 19.2211L31.9385 18.4445L29.9383 17.2796L27.8736 16.3735L25.7443 15.6616L23.5506 15.1439L21.3568 14.885L19.2276 14.8203L17.1629 14.9497L15.0982 15.3381L13.227 15.9852L11.4204 16.8266L9.87189 17.9915L9.09763 18.6387L8.38788 19.3506L7.80718 20.1272L7.22648 20.9685L6.7103 21.9393L6.25865 22.9101L5.54891 25.0458L5.2263 27.5051L0 90.67H22.0021L25.4863 48.2796L28.4543 59.0875L30.7771 52.0332L32.003 48.7973Z" fill="white"/>
<path d="M77.6847 33.8474L75.8136 37.5363L73.7489 41.0311L71.3615 44.5259L68.7806 47.8265L66.0062 51.1271L62.9736 54.2983L59.683 57.3401L61.6832 90.8641H84.0724L79.3623 30.0938L77.6847 33.8474Z" fill="white"/>
<path d="M39.4876 68.6014L40.649 65.236L54.7793 45.4323L57.8764 40.3843L59.2314 37.8602L60.3927 35.2715L61.4251 32.6181L62.1994 29.8999L62.7801 27.1818L63.0382 24.3342L65.2319 21.6807L66.1352 20.3216L66.9095 19.0273L68.2645 16.3738L69.2968 13.7204L70.1356 11.1317L70.7163 8.54293L71.6841 3.36548L70.2001 7.96047L69.3613 10.2256L68.458 12.4907L67.4257 14.7559L66.1352 16.8916L64.6512 19.0273L63.8124 20.0628L62.8446 21.0982L62.2639 18.8331L61.6187 16.8269L60.9735 15.0147L60.1992 13.3321L59.4894 11.8436L58.6507 10.4198L57.8764 9.12539L57.0376 7.89575L58.4571 12.426L59.683 16.7621L60.1347 18.8331L60.5218 20.7747L60.7154 22.6515V23.4928V24.3342L47.6174 37.5367L42.7782 42.9083L38.9714 47.8916L37.4229 50.2214L36.0679 52.5513L34.971 54.9458L34.0032 57.3404L33.2289 59.7997L32.6482 62.3237L32.1966 65.0419L31.9385 67.8895L31.8739 71.0607L32.003 74.1024L32.2611 76.95L32.7127 79.7976L33.358 82.5158L34.1322 85.2339L35.1646 87.9521L36.326 90.735L36.6486 84.5868L36.9067 81.4803L37.2938 78.3091L37.81 75.1379L38.5197 71.902L39.4876 68.6014Z" fill="#F7FA00"/>
<path d="M39.1004 43.4259L44.5848 35.0773L50.8435 26.3403L52.263 23.8811L53.2953 21.6159L54.0696 19.4802L54.5212 17.474L54.7793 15.6618L54.9084 13.8497V10.4197L53.8115 13.9145L52.5211 17.0856L51.1661 20.1274L49.553 23.0397L46.1979 28.5408L42.5846 33.9124L38.9069 39.4781L35.4227 45.6263L33.8096 48.9917L32.3256 52.6159L30.9061 56.5637L29.6802 60.8351L34.1968 51.8393L39.1004 43.4259Z" fill="#F7FA00"/>
<path d="M66.9095 45.9499L69.942 41.7432L72.2648 37.9248L74.136 34.4301L75.4909 31.2589L76.5233 28.3466L77.233 24.8518L77.6847 21.4217L77.8783 17.9269L77.8137 14.3674L77.6202 12.62L77.2976 10.8079L76.975 9.06054L76.4588 7.24843L75.8781 5.43633L75.1683 3.62422L74.3941 1.87683L73.4908 0L75.1038 5.56576L76.0071 10.6785L76.3297 15.5971L76.0716 20.1921L75.2329 24.6576L74.0069 28.7996L72.2648 32.8121L70.2001 36.6952L67.7483 40.4488L65.1029 44.1378L59.0378 51.3862L45.6172 66.1419L43.617 68.7307L41.8749 71.3841L41.0361 72.7432L40.3264 74.167L39.7457 75.5908L39.165 77.0793L38.7778 78.6326L38.3907 80.1858L38.1326 81.8037L38.0036 83.4217V85.1691L38.1326 86.9165L38.3907 88.7286L38.7778 90.6054L39.4876 86.6576L40.4554 82.7745L41.8104 79.0209L43.3589 75.3319L45.2946 71.8372L47.4883 68.4071L50.0692 65.0417L52.9727 61.8706L58.5216 55.9812L63.1027 50.739L66.9095 45.9499Z" fill="#F7FA00"/>
</svg>
