<svg width="21" height="21" viewBox="0 0 21 21" fill="none" xmlns="http://www.w3.org/2000/svg">
<path d="M10.6481 1.27375C10.4338 1.25793 10.2191 1.25001 10.0043 1.25V0C10.25 0.000119784 10.4956 0.00929268 10.7406 0.0275L10.6481 1.27375ZM13.1531 1.83625C12.7524 1.68163 12.3408 1.55671 11.9218 1.4625L12.1956 0.2425C12.6743 0.35 13.1456 0.4925 13.6031 0.67L13.1531 1.83625ZM14.8656 2.72375C14.6868 2.60456 14.5038 2.49199 14.3168 2.38625L14.9331 1.29875C15.3604 1.54092 15.7695 1.81415 16.1568 2.11625L15.3881 3.1025C15.2186 2.97029 15.0443 2.84437 14.8656 2.725V2.72375ZM17.1581 4.96125C16.9108 4.60997 16.638 4.2774 16.3418 3.96625L17.2468 3.10375C17.5843 3.46 17.8968 3.84125 18.1806 4.24125L17.1581 4.96125ZM18.0881 6.65125C18.006 6.45307 17.9168 6.25794 17.8206 6.06625L18.9368 5.50375C19.1576 5.94261 19.3456 6.39718 19.4993 6.86375L18.3118 7.255C18.2446 7.05108 18.17 6.8497 18.0881 6.65125ZM18.7506 9.785C18.7404 9.35542 18.6987 8.92718 18.6256 8.50375L19.8568 8.29125C19.9406 8.77375 19.9893 9.26375 20.0018 9.75375L18.7518 9.785H18.7506ZM18.5868 11.7075C18.6281 11.495 18.6618 11.2838 18.6881 11.07L19.9293 11.2238C19.8693 11.7114 19.7732 12.194 19.6418 12.6675L18.4368 12.3338C18.4943 12.1275 18.5443 11.9188 18.5868 11.7075ZM17.3968 14.6813C17.6268 14.3188 17.8293 13.9388 18.0043 13.5463L19.1468 14.0525C18.9468 14.5025 18.7156 14.935 18.4531 15.35L17.3968 14.6813ZM16.1918 16.1875C16.3443 16.035 16.4906 15.8775 16.6293 15.715L17.5768 16.5313C17.4163 16.7173 17.2492 16.8974 17.0756 17.0713L16.1918 16.1875Z" fill="#F7FA00"/>
<path d="M10.0039 1.25C8.565 1.2501 7.14833 1.60506 5.87938 2.28342C4.61042 2.96179 3.52834 3.94263 2.72898 5.13906C1.92962 6.3355 1.43765 7.7106 1.29665 9.14258C1.15565 10.5746 1.36997 12.0192 1.92063 13.3486C2.47128 14.6779 3.34128 15.851 4.45356 16.7638C5.56584 17.6766 6.88608 18.3011 8.29732 18.5818C9.70857 18.8626 11.1673 18.791 12.5442 18.3733C13.9212 17.9557 15.1739 17.2049 16.1914 16.1875L17.0752 17.0712C15.9123 18.2347 14.4805 19.0934 12.9065 19.5712C11.3324 20.0491 9.66487 20.1313 8.05148 19.8106C6.4381 19.4899 4.92873 18.7762 3.65709 17.7328C2.38546 16.6893 1.39082 15.3483 0.761323 13.8286C0.131822 12.3089 -0.113112 10.6573 0.0482224 9.02034C0.209557 7.38332 0.772179 5.81138 1.68624 4.44377C2.6003 3.07617 3.83757 1.95514 5.28844 1.18C6.7393 0.404869 8.35896 -0.000435915 10.0039 3.51823e-07V1.25Z" fill="#F7FA00"/>
<path d="M9.3793 3.75C9.54506 3.75 9.70403 3.81585 9.82124 3.93306C9.93845 4.05027 10.0043 4.20924 10.0043 4.375V10.8875L14.0643 13.2075C14.204 13.2918 14.3053 13.4274 14.3463 13.5854C14.3874 13.7433 14.3651 13.9111 14.2841 14.0527C14.2031 14.1944 14.07 14.2989 13.913 14.3437C13.7561 14.3885 13.5879 14.3701 13.4443 14.2925L9.0693 11.7925C8.97364 11.7379 8.89413 11.6589 8.83881 11.5636C8.78349 11.4684 8.75434 11.3602 8.7543 11.25V4.375C8.7543 4.20924 8.82015 4.05027 8.93736 3.93306C9.05457 3.81585 9.21354 3.75 9.3793 3.75Z" fill="#F7FA00"/>
</svg>
