<svg width="20" height="21" viewBox="0 0 20 21" fill="none" xmlns="http://www.w3.org/2000/svg">
<path d="M15.465 21C15.2703 20.9994 15.0763 20.9765 14.8861 20.9316C11.2665 20.1276 7.93176 18.2424 5.26585 15.4931C2.65684 12.7377 0.847349 9.22957 0.0563121 5.39304C-0.036961 4.9149 -0.0140681 4.41902 0.122788 3.95313C0.259645 3.48723 0.505859 3.067 0.837743 2.73285L3.1531 0.339911C3.27136 0.219821 3.41187 0.127859 3.56547 0.0700266C3.71907 0.0121938 3.8823 -0.0102096 4.04451 0.00427847C4.2127 0.0231192 4.375 0.0812958 4.52 0.174717C4.66501 0.268138 4.78919 0.394535 4.88382 0.54502L7.77801 5.13821C7.88654 5.31643 7.93894 5.52736 7.92747 5.73995C7.91601 5.95254 7.8413 6.15556 7.71434 6.31914L6.26146 8.18377C6.84009 9.5589 7.65955 10.8017 8.67521 11.8446C9.6843 12.9254 10.877 13.7883 12.1888 14.3868L13.9889 12.8515C14.1401 12.7232 14.3241 12.6474 14.5164 12.6341C14.7087 12.6207 14.9003 12.6706 15.0656 12.777L19.4358 15.8101C19.5858 15.9062 19.7135 16.0376 19.8095 16.1943C19.9055 16.351 19.9672 16.529 19.9901 16.7149C20.0129 16.9009 19.9962 17.09 19.9414 17.268C19.8865 17.4461 19.7948 17.6085 19.6731 17.7431L17.4157 20.1422C17.1592 20.4162 16.8549 20.6331 16.5201 20.7803C16.1853 20.9275 15.8267 21.0021 15.465 21ZM3.95189 1.23493L1.63654 3.62787C1.44984 3.81467 1.31163 4.05044 1.23551 4.31199C1.15939 4.57353 1.14799 4.85185 1.20241 5.11957C1.93795 8.71962 3.62874 12.0139 6.07044 14.6043C8.57924 17.1909 11.7174 18.964 15.1235 19.7196C15.3813 19.7775 15.6484 19.7657 15.901 19.6855C16.1536 19.6052 16.3836 19.4589 16.5706 19.2596L18.828 16.8605L14.6083 13.933L12.675 15.5863C12.601 15.6492 12.5138 15.6917 12.4209 15.7102C12.3281 15.7286 12.2325 15.7223 12.1424 15.692C10.5372 15.0569 9.0824 14.0488 7.8822 12.7397C6.6408 11.4949 5.67719 9.96511 5.06326 8.26457C5.03729 8.16162 5.03643 8.05322 5.06076 7.94981C5.08508 7.8464 5.13379 7.75145 5.20218 7.6741L6.76504 5.66652L3.95189 1.23493Z" fill="#F7FA00"/>
</svg>
