<svg width="19" height="23" viewBox="0 0 19 23" fill="none" xmlns="http://www.w3.org/2000/svg">
<path d="M9.33333 12.5413C11.0592 12.5413 12.4583 11.1421 12.4583 9.41626C12.4583 7.69037 11.0592 6.29126 9.33333 6.29126C7.60744 6.29126 6.20833 7.69037 6.20833 9.41626C6.20833 11.1421 7.60744 12.5413 9.33333 12.5413Z" stroke="#F7FA00" stroke-width="2" stroke-linecap="round" stroke-linejoin="round"/>
<path d="M9.33333 1.08301C7.12319 1.08301 5.00358 1.96098 3.44078 3.52378C1.87797 5.08659 1 7.2062 1 9.41634C1 11.3872 1.41875 12.6768 2.5625 14.1038L9.33333 21.9163L16.1042 14.1038C17.2479 12.6768 17.6667 11.3872 17.6667 9.41634C17.6667 7.2062 16.7887 5.08659 15.2259 3.52378C13.6631 1.96098 11.5435 1.08301 9.33333 1.08301V1.08301Z" stroke="#F7FA00" stroke-width="2" stroke-linecap="round" stroke-linejoin="round"/>
</svg>
