<svg width="166" height="45" viewBox="0 0 166 45" fill="none" xmlns="http://www.w3.org/2000/svg">
<path d="M62.5657 33.1629L62.2535 33.6013L61.9101 34.0084L61.5354 34.3841L61.0983 34.7599L60.63 35.0731L60.1305 35.3862L59.5373 35.6681L58.7568 35.9499L57.9451 36.1378L57.1958 36.2631H56.4153L55.6972 36.2004L54.9791 36.0752L54.3235 35.8246L53.7303 35.5428L53.1684 35.1357L52.6688 34.666L52.263 34.1336L51.9195 33.5386L51.701 32.881L51.5449 32.1295L51.5137 31.3466L51.5761 30.4697L51.701 29.8748L51.8883 29.3111L52.1069 28.7787L52.4191 28.2464L52.7313 27.7766L53.1059 27.3382L53.543 26.9624L54.0113 26.6493L54.4796 26.3988L55.0104 26.2109L55.5723 26.0856L56.1343 26.0543L56.7275 26.1169L57.3207 26.2735L57.9451 26.524L58.5695 26.8685L53.4493 29.8121L55.9782 34.3215L68.4976 27.1816L67.842 25.2714L66.9366 23.5491L65.7814 22.0146L64.4701 20.6681L63.0028 19.5407L61.3793 18.6639L59.6622 17.975L57.8514 17.5679L56.0094 17.38L54.1674 17.4426L52.3254 17.7558L50.4834 18.3507L48.7663 19.1963L47.1116 20.3549L45.613 21.8267L44.2393 23.5491L43.209 25.3967L42.491 27.2443L42.0539 29.1232L41.929 31.0021L42.0539 32.8184L42.4285 34.6034L43.0217 36.2944L43.8022 37.9228L44.8013 39.4259L45.9252 40.8038L47.2053 41.9937L48.6102 43.0271L50.14 43.8727L51.7322 44.499L53.4181 44.8748L55.1352 45L56.3216 44.9061L57.4768 44.7495L58.5695 44.5616L59.631 44.3111L60.63 43.9979L61.5979 43.6535L62.5033 43.2464L63.3774 42.8079L64.1892 42.3382L64.9697 41.8059L65.6877 41.2422L66.4058 40.6785L67.0302 40.0835L67.6546 39.4259L68.1854 38.7683L68.6849 38.0793L62.8467 32.7244L62.5657 33.1629Z" fill="white"/>
<path d="M83.2648 30.3757L82.7653 30.4071L82.3282 30.3757L81.9223 30.2818L81.5789 30.1878L81.2667 30.0313L80.9857 29.8434L80.736 29.6242L80.5174 29.3737L80.3301 29.0605L80.174 28.7473L80.0491 28.4029L79.8306 27.62L79.7057 26.7432L79.6432 25.7724L79.612 23.6117L79.6432 21.263L79.612 18.7578L69.6215 18.6952L69.4966 21.7014L69.5278 24.4572L69.7152 26.9624L70.0274 29.2797L70.5269 31.3152L71.1825 33.1315L71.9318 34.7286L72.8684 36.1064L73.3992 36.7014L73.9611 37.2338L74.5231 37.7348L75.1475 38.1419L75.8031 38.5177L76.4588 38.8309L77.1768 39.0814L77.9261 39.3006L79.5184 39.5198L81.2043 39.5511L83.0463 39.3319L84.9819 38.8935V30.0939L83.7643 30.3444L83.2648 30.3757Z" fill="white"/>
<path d="M96.5647 18.4447H86.543V43.9979H96.5647V18.4447Z" fill="white"/>
<path d="M135.372 24.5824L134.841 23.3298L134.154 22.1712L133.311 21.0438L132.312 20.073L131.157 19.2275L129.846 18.5386L129.128 18.2881L128.378 18.0689L127.629 17.9123L126.786 17.8183H125.069L123.258 18.1315L121.291 18.7578L119.199 19.7286L117.014 21.0438L115.609 19.8852L114.111 18.977L112.581 18.3194L110.989 17.881L109.396 17.6618H107.804L106.243 17.881L104.776 18.3194L103.371 18.9457L102.059 19.7599L100.904 20.7307L99.9365 21.9206L99.4682 22.5783L99.0936 23.2672L98.7813 24.0188L98.5004 24.8016L98.1257 26.4614L98.0008 28.2776V43.9666H108.023V28.2776L108.179 27.9958L108.397 27.7453L108.585 27.5261L108.834 27.3069L109.115 27.1503L109.396 26.9937L109.677 26.8998L109.958 26.8684L110.239 26.8371L110.395 26.8684L110.551 26.8998L110.708 26.9311L110.832 26.9624L110.989 27.025L111.113 27.119L111.27 27.2129L111.394 27.3069L111.644 27.5887L111.863 27.9019L112.112 28.2776V43.9666H122.103V28.2776L122.259 27.9019L122.446 27.5887L122.665 27.3382L122.884 27.119L123.008 27.025L123.133 26.9624L123.258 26.8998L123.383 26.8684L123.539 26.8058H123.664L123.789 26.7745H123.945L124.07 26.8058H124.195L124.476 26.8998L124.757 27.025L125.006 27.1816L125.256 27.4008L125.475 27.6513L125.693 27.9332L125.881 28.2776V43.9666H135.902V27.0563L135.715 25.8037L135.372 24.5824Z" fill="white"/>
<path d="M165.718 32.9436L165.655 31.7223L165.531 30.6576L165.406 29.6555L165.187 28.7161L164.937 27.7766L164.594 26.8058L164.188 25.7724L163.595 24.4572L162.908 23.2672L162.19 22.2025L161.409 21.2943L160.598 20.5115L159.724 19.8538L158.818 19.2902L157.882 18.8204L156.914 18.476L155.915 18.1941L154.884 18.0063L153.823 17.881L152.761 17.8184H151.669L149.515 17.9436L147.329 18.3194L145.331 18.977L143.52 19.9165L141.897 21.0751L140.492 22.4217L139.305 23.9561L138.338 25.6159L137.62 27.4008L137.151 29.2484L136.933 31.1273L136.995 33.0062L137.307 34.8852L137.932 36.7014L138.837 38.4238L139.43 39.2693L140.086 40.0835L141.616 41.524L142.24 42.025L142.927 42.4321L143.583 42.7766L144.301 43.0584L144.988 43.3403L145.706 43.5282L146.455 43.6847L147.204 43.81L148.765 43.9353L150.357 43.9666L153.604 43.8413V34.4154L152.699 34.6973L151.856 34.8538H151.076L150.701 34.7912L150.326 34.7286L150.014 34.6346L149.702 34.5094L149.39 34.3841L149.109 34.1962L148.859 34.0396L148.609 33.8204L148.172 33.3507L147.829 32.8497L147.579 32.3173L147.423 31.7223L147.329 31.1273V30.8455L147.36 30.5323L147.392 30.2505L147.485 29.9687L147.579 29.6868L147.673 29.405L147.829 29.1545L147.985 28.8726L148.266 28.5595L148.578 28.2776L148.953 28.0271L149.327 27.8079L149.733 27.62L150.139 27.4634L150.607 27.3695L151.044 27.3069H151.481H151.95L152.387 27.3695L152.793 27.4948L153.23 27.6513L153.636 27.8705L153.979 28.1211L154.322 28.4342L154.447 28.5595L154.603 28.7161L154.728 28.9039L154.853 29.0918L155.134 29.4989L155.384 29.906V43.9353H165.718V34.3215V32.9436Z" fill="white"/>
<path d="M15.4853 23.6117L16.0785 22.1399L16.7029 20.8246L17.3585 19.6346L18.0454 18.6012L18.42 18.1315L18.7947 17.7244L17.4834 12.8079L17.1088 11.6493L16.8902 11.1169L16.6405 10.6158L16.3907 10.1148L16.1097 9.67639L15.7975 9.30061L15.4541 8.92483L14.4863 8.36115L13.4872 7.92274L12.4569 7.57827L11.3954 7.32775L10.334 7.20249L9.30368 7.17117L8.30463 7.2338L7.30557 7.42169L6.40018 7.73485L5.52601 8.14195L4.77672 8.70562L4.40208 9.01877L4.05865 9.36324L3.77767 9.73902L3.49668 10.1461L3.24692 10.6158L3.02838 11.0856L2.68495 12.119L2.52885 13.309L0 43.8726H10.6462L12.3321 23.3611L13.7682 28.5908L14.8921 25.1774L15.4853 23.6117Z" fill="white"/>
<path d="M37.5894 16.3779L36.684 18.1628L35.6849 19.8539L34.5298 21.5449L33.281 23.142L31.9385 24.739L30.4711 26.2735L28.8789 27.7453L29.8467 43.9666H40.6802L38.4011 14.5616L37.5894 16.3779Z" fill="white"/>
<path d="M19.1069 33.1941L19.6689 31.5657L26.5061 21.9833L28.0047 19.5407L28.6603 18.3194L29.2223 17.0668L29.7218 15.7829L30.0965 14.4676L30.3775 13.1524L30.5023 11.7745L31.5638 10.4906L32.0009 9.83298L32.3756 9.20667L33.0312 7.92275L33.5307 6.63882L33.9366 5.38622L34.2176 4.13361L34.6859 1.62839L33.9678 3.85177L33.5619 4.9478L33.1249 6.04384L32.6253 7.13987L32.0009 8.17327L31.2829 9.20667L30.877 9.70772L30.4087 10.2088L30.1277 9.11273L29.8155 8.14196L29.5033 7.26513L29.1286 6.45093L28.7852 5.73068L28.3794 5.04175L28.0047 4.41544L27.5988 3.82045L28.2857 6.01252L28.8789 8.11064L29.0974 9.11273L29.2847 10.0522L29.3784 10.9603V11.3674V11.7745L23.0407 18.1628L20.6991 20.762L18.8571 23.1733L18.1078 24.3006L17.4522 25.428L16.9215 26.5866L16.4532 27.7453L16.0785 28.9353L15.7975 30.1566L15.579 31.4718L15.4541 32.8497L15.4229 34.3841L15.4853 35.8559L15.6102 37.2338L15.8287 38.6117L16.141 39.9269L16.5156 41.2422L17.0151 42.5574L17.5771 43.9039L17.7332 40.929L17.8581 39.4259L18.0454 37.8914L18.2952 36.357L18.6386 34.7912L19.1069 33.1941Z" fill="#F7FA00"/>
<path d="M18.9196 21.0125L21.5733 16.9729L24.6017 12.7453L25.2885 11.5553L25.7881 10.4593L26.1627 9.42588L26.3812 8.45511L26.5061 7.57828L26.5686 6.70146V5.04175L26.0378 6.73277L25.4134 8.26722L24.7578 9.73903L23.9773 11.1482L22.3538 13.81L20.6055 16.4092L18.8259 19.1023L17.14 22.0772L16.3595 23.7056L15.6414 25.4593L14.9546 27.3695L14.3614 29.4363L16.5468 25.0835L18.9196 21.0125Z" fill="#F7FA00"/>
<path d="M32.3756 22.2338L33.8429 20.1983L34.9669 18.3507L35.8722 16.6597L36.5279 15.1253L37.0274 13.7161L37.3708 12.0251L37.5894 10.3653L37.683 8.67432L37.6518 6.95198L37.5581 6.10647L37.402 5.22964L37.2459 4.38413L36.9962 3.50731L36.7152 2.63048L36.3718 1.75365L35.9971 0.908142L35.56 0L36.3406 2.69311L36.7776 5.16701L36.9337 7.54697L36.8089 9.77035L36.403 11.9311L35.8098 13.9353L34.9669 15.8768L33.9678 17.7557L32.7814 19.572L31.5014 21.357L28.5667 24.8643L22.0728 32.0042L21.105 33.2568L20.262 34.5407L19.8562 35.1983L19.5128 35.8873L19.2318 36.5762L18.9508 37.2964L18.7635 38.048L18.5761 38.7996L18.4513 39.5825L18.3888 40.3653V41.2108L18.4513 42.0564L18.5761 42.9332L18.7635 43.8413L19.1069 41.9311L19.5752 40.0522L20.2308 38.2359L20.9801 36.4509L21.9167 34.7599L22.9782 33.1002L24.227 31.4718L25.632 29.9374L28.3169 27.0877L30.5336 24.5511L32.3756 22.2338Z" fill="#F7FA00"/>
</svg>
