<svg width="20" height="16" viewBox="0 0 20 16" fill="none" xmlns="http://www.w3.org/2000/svg">
<path d="M18.75 0H1.25C0.918479 0 0.600537 0.140476 0.366116 0.390524C0.131696 0.640573 0 0.979711 0 1.33333V14.6667C0 15.0203 0.131696 15.3594 0.366116 15.6095C0.600537 15.8595 0.918479 16 1.25 16H18.75C19.0815 16 19.3995 15.8595 19.6339 15.6095C19.8683 15.3594 20 15.0203 20 14.6667V1.33333C20 0.979711 19.8683 0.640573 19.6339 0.390524C19.3995 0.140476 19.0815 0 18.75 0ZM17.7875 14.6667H2.2875L6.6625 9.84L5.7625 8.91333L1.25 13.8933V2.34667L9.01875 10.5933C9.25295 10.8417 9.56977 10.9811 9.9 10.9811C10.2302 10.9811 10.547 10.8417 10.7812 10.5933L18.75 2.14V13.8067L14.15 8.9L13.2687 9.84L17.7875 14.6667ZM2.06875 1.33333H17.7375L9.9 9.64667L2.06875 1.33333Z" fill="#F7FA00"/>
</svg>
