<svg width="44" height="40" viewBox="0 0 44 40" fill="none" xmlns="http://www.w3.org/2000/svg">
<path d="M42.0665 16.9793H41.4223V15.0454V8.17039C41.4223 5.91952 39.5911 4.08828 37.3403 4.08828H19.639L7.69689 0.676223C7.69345 0.675278 7.68993 0.674762 7.68649 0.673817C7.68297 0.672871 7.67962 0.671496 7.67609 0.670637C7.66888 0.668832 7.66174 0.667973 7.65461 0.666426C7.64352 0.664106 7.63244 0.6617 7.62135 0.659895C7.6113 0.658262 7.60142 0.657231 7.59136 0.656028C7.57967 0.654653 7.56807 0.65345 7.55647 0.652762C7.54702 0.652246 7.53765 0.65216 7.5282 0.651989C7.51617 0.651817 7.50422 0.651731 7.49227 0.652246C7.48342 0.65259 7.47457 0.653449 7.46581 0.654137C7.45352 0.655168 7.44123 0.656285 7.42911 0.65809C7.42086 0.659293 7.4127 0.66084 7.40453 0.662301C7.39199 0.664535 7.37961 0.666942 7.36732 0.669949C7.35967 0.67184 7.3522 0.673988 7.34463 0.676137C7.33209 0.679746 7.31971 0.683442 7.30734 0.687738C7.30038 0.690231 7.2935 0.692895 7.28654 0.695645C7.27408 0.700457 7.2617 0.705527 7.24959 0.711113C7.24314 0.714121 7.23687 0.717387 7.23051 0.720567C7.21839 0.726668 7.20645 0.732856 7.19476 0.739817C7.18866 0.74334 7.18281 0.747121 7.1768 0.750902C7.16528 0.758121 7.15394 0.765512 7.14294 0.773504C7.13718 0.777629 7.1316 0.782098 7.12592 0.786481C7.11535 0.794645 7.10487 0.80298 7.09481 0.811832C7.08914 0.816816 7.08373 0.822059 7.07823 0.827215C7.06878 0.836152 7.05941 0.84509 7.05047 0.854543C7.04489 0.860473 7.03964 0.86666 7.03423 0.872847C7.02606 0.882215 7.01799 0.891668 7.01034 0.901551C7.00484 0.908683 6.99968 0.915988 6.99444 0.923293C6.98765 0.932832 6.98095 0.942457 6.97476 0.95234C6.96943 0.960761 6.96453 0.969527 6.95964 0.978207C6.95422 0.987746 6.94881 0.997371 6.94391 1.00725C6.9391 1.01688 6.9348 1.02676 6.93042 1.03664C6.92612 1.04636 6.92191 1.05607 6.91813 1.06603C6.91417 1.07652 6.91074 1.08726 6.90721 1.09809C6.90498 1.10505 6.90223 1.11158 6.90017 1.11863C6.89914 1.12215 6.89871 1.12559 6.89776 1.12903C6.89681 1.13255 6.89544 1.1359 6.89458 1.13943L6.15758 4.08811H4.08245C1.83614 4.08811 0.00807811 5.91196 0.000687499 8.15664C0.000601561 8.16128 0 8.16566 0 8.17022V30.5139C0 30.8697 0.289609 31.1585 0.64453 31.1585C1.00031 31.1585 1.28906 30.8697 1.28906 30.5139V11.143C2.01987 11.8302 3.00248 12.2525 4.08245 12.2525H37.3403C37.3411 12.2525 37.3418 12.2524 37.3425 12.2524C38.8815 12.2536 40.1333 13.5061 40.1333 15.0455V19.5575H33.0424C33.042 19.5575 33.0416 19.5576 33.0412 19.5576C33.0225 19.5576 33.004 19.5587 32.9855 19.5604C32.965 19.5622 32.9447 19.5651 32.9247 19.5688C32.9217 19.5693 32.9188 19.5695 32.9158 19.5701C32.899 19.5735 32.8825 19.578 32.866 19.5826C32.8624 19.5836 32.8587 19.5843 32.8552 19.5854C32.8406 19.5899 32.8264 19.5952 32.8123 19.6007C32.8068 19.6027 32.8013 19.6044 32.7959 19.6067C32.7841 19.6116 32.7726 19.6173 32.7612 19.6229C32.7536 19.6265 32.746 19.6299 32.7386 19.6337C32.7297 19.6385 32.7212 19.6439 32.7127 19.649C32.7031 19.6547 32.6934 19.6602 32.6841 19.6664C32.6778 19.6705 32.6721 19.6752 32.6661 19.6796C32.6551 19.6875 32.644 19.6954 32.6335 19.704C32.6289 19.7078 32.6247 19.712 32.6204 19.7159C32.6091 19.7257 32.5978 19.7354 32.5872 19.7461C32.5809 19.7523 32.5752 19.7592 32.5693 19.7657C32.561 19.7748 32.5524 19.7836 32.5445 19.7932C32.5312 19.8095 32.5187 19.8263 32.507 19.8438C32.5067 19.844 32.5065 19.8444 32.5063 19.8447L29.069 25.001C29.045 25.037 29.0247 25.075 29.0087 25.1147C29.0026 25.1294 28.9977 25.1445 28.9928 25.1594C28.9913 25.164 28.9894 25.1684 28.988 25.1729C28.9832 25.1888 28.9795 25.2049 28.976 25.2209C28.9751 25.2251 28.9739 25.2292 28.973 25.2334C28.9702 25.2479 28.9683 25.2624 28.9665 25.2769C28.9657 25.2831 28.9645 25.2893 28.9639 25.2956C28.9627 25.3075 28.9624 25.3194 28.962 25.3313C28.9616 25.3404 28.9608 25.3495 28.9608 25.3587C28.9608 25.3676 28.9616 25.3764 28.9619 25.3853C28.9623 25.3975 28.9627 25.4098 28.9639 25.422C28.9645 25.4279 28.9656 25.4338 28.9664 25.4398C28.9683 25.4545 28.9702 25.4693 28.9731 25.484C28.9739 25.4881 28.9751 25.492 28.976 25.496C28.9795 25.5122 28.9833 25.5284 28.9881 25.5444C28.9895 25.549 28.9914 25.5534 28.9929 25.558C28.9977 25.573 29.0026 25.588 29.0087 25.6028C29.0249 25.6423 29.0452 25.6805 29.0692 25.7165L32.5065 30.872C32.5067 30.8723 32.5068 30.8725 32.507 30.8727C32.5208 30.8933 32.536 30.9128 32.5519 30.9317C32.5572 30.9379 32.5628 30.9436 32.5682 30.9495C32.5791 30.9614 32.5904 30.9729 32.6022 30.984C32.6092 30.9905 32.6161 30.9969 32.6231 31.003C32.6356 31.0137 32.6486 31.0238 32.6619 31.0336C32.668 31.038 32.6737 31.0428 32.6798 31.0469C32.6992 31.0601 32.7192 31.0722 32.7399 31.0832C32.7451 31.0859 32.7505 31.0882 32.7558 31.0908C32.7723 31.0991 32.7891 31.1067 32.8064 31.1135C32.8131 31.1162 32.8198 31.1186 32.8266 31.121C32.843 31.1268 32.8597 31.132 32.8767 31.1365C32.8837 31.1383 32.8905 31.1402 32.8976 31.142C32.915 31.146 32.9327 31.1491 32.9507 31.1517C32.9572 31.1526 32.9637 31.1539 32.9702 31.1547C32.9924 31.1572 33.0149 31.1585 33.0378 31.1587C33.0396 31.1587 33.0414 31.1591 33.0433 31.1591C33.0436 31.1591 33.044 31.159 33.0445 31.159H40.1335V35.6714C40.1335 37.2115 38.8805 38.4645 37.3405 38.4645H4.0828C2.5428 38.4645 1.28983 37.2115 1.28983 35.6714C1.28983 35.668 1.2894 35.6647 1.28932 35.6614V33.0924C1.28932 32.7375 1.00057 32.4479 0.644788 32.4479C0.289867 32.4479 0.000257812 32.7375 0.000257812 33.0924V35.6714C0.000257812 35.6781 0.00103125 35.6846 0.00128906 35.6912C0.0120312 37.933 1.83863 39.7536 4.0828 39.7536H37.3405C39.5912 39.7536 41.4222 37.9227 41.4226 35.6721C41.4226 35.672 41.4226 35.6719 41.4226 35.6717V31.159H42.0668C43.1327 31.159 44 30.2917 44 29.2257V18.9126C43.9997 17.8466 43.1325 16.9793 42.0665 16.9793ZM7.98358 2.09874L19.3564 5.34829C19.357 5.34846 19.3576 5.34855 19.3581 5.34872L26.9804 7.52655H6.62697L7.98358 2.09874ZM40.1332 12.0725C39.4024 11.3855 38.42 10.9633 37.3403 10.9633C37.3392 10.9633 37.3381 10.9634 37.3369 10.9634H4.08245C2.54237 10.9634 1.2894 9.71047 1.2894 8.17039C1.2894 6.63031 2.54237 5.37734 4.08245 5.37734H5.8354L5.29829 7.52655H4.08262C3.72667 7.52655 3.4381 7.81512 3.4381 8.17108C3.4381 8.52703 3.72667 8.81561 4.08262 8.81561H5.79931C5.80017 8.81561 5.80111 8.81578 5.80206 8.81578C5.80275 8.81578 5.80343 8.81561 5.80404 8.81561H31.5802C31.581 8.81561 31.5818 8.81578 31.5826 8.81578C31.5833 8.81578 31.5839 8.81561 31.5846 8.81561H36.4801C36.8361 8.81561 37.1247 8.52703 37.1247 8.17108C37.1247 7.81512 36.8361 7.52655 36.4801 7.52655H31.6725L24.1505 5.37734H37.3402C38.8802 5.37734 40.1332 6.63031 40.1332 8.17039V12.0725ZM42.7107 29.2254C42.7107 29.5806 42.4217 29.8696 42.0665 29.8696H33.3873L30.3796 25.3584L33.3873 20.8465H42.0665C42.0755 20.8465 42.0843 20.8455 42.0932 20.8451C42.3094 20.8421 42.5171 20.8036 42.7107 20.735V29.2254ZM42.0665 19.5567C42.062 19.5567 42.0576 19.5573 42.0532 19.5574H41.4223V18.2684H42.0665C42.4217 18.2684 42.7107 18.5574 42.7107 18.9126C42.7107 19.2677 42.4217 19.5567 42.0665 19.5567Z" fill="#F7FA00"/>
<path d="M35.621 22.9949C34.3178 22.9949 33.2577 24.0551 33.2577 25.3582C33.2577 26.6614 34.3178 27.7215 35.621 27.7215C36.9241 27.7215 37.9842 26.6614 37.9842 25.3582C37.9842 24.0551 36.9241 22.9949 35.621 22.9949ZM35.621 26.4325C35.0286 26.4325 34.5467 25.9506 34.5467 25.3582C34.5467 24.7659 35.0286 24.2839 35.621 24.2839C36.2133 24.2839 36.6952 24.7659 36.6952 25.3582C36.6952 25.9506 36.2133 26.4325 35.621 26.4325Z" fill="#F7FA00"/>
</svg>
