<svg width="44" height="41" viewBox="0 0 44 41" fill="none" xmlns="http://www.w3.org/2000/svg">
<path d="M43.9069 12.9938L39.7718 4.84482V1.61304C39.7718 1.13849 39.3871 0.753662 38.9124 0.753662H5.08735C4.6128 0.753662 4.22797 1.13849 4.22797 1.61304V4.84525L0.0929847 12.9938C0.0318829 13.1143 0 13.2476 0 13.3827V15.4968C0 18.0089 1.83082 20.1003 4.22797 20.5102V38.5661H3.34857C2.87393 38.5661 2.48919 38.951 2.48919 39.4255C2.48919 39.9001 2.87393 40.2849 3.34857 40.2849H5.08073C5.08288 40.2849 5.08511 40.2852 5.08735 40.2852H28.5999H35.4751H38.9126H40.6513C41.1259 40.2852 41.5107 39.9004 41.5107 39.4259C41.5107 38.9513 41.1259 38.5665 40.6513 38.5665H39.7719V20.5102C42.1692 20.1003 44 18.009 44 15.4968V13.3827C44 13.2476 43.9681 13.1143 43.9069 12.9938ZM5.94673 2.47242H38.053V4.19143H32.1476H25.3825H18.6176H11.8524H5.94673V2.47242ZM27.0831 13.2959L26.3336 5.91019H31.511L33.825 13.5105V15.4968C33.825 17.3543 32.3138 18.8654 30.4563 18.8654C28.5987 18.8654 27.0874 17.3543 27.0874 15.4968V13.3827C27.0874 13.3537 27.086 13.3247 27.0831 13.2959ZM25.3687 13.4261V15.4968H25.3686C25.3686 17.3543 23.8575 18.8654 22.0001 18.8654C20.1425 18.8654 18.6312 17.3543 18.6312 15.4968V13.4261L19.3942 5.91019H24.606L25.3687 13.4261ZM17.6667 5.91028L16.9169 13.2959C16.9139 13.3247 16.9125 13.3537 16.9125 13.3827V15.4968C16.9125 17.3543 15.4014 18.8654 13.5438 18.8654C11.6863 18.8654 10.1751 17.3543 10.1751 15.4968V13.5106L12.4893 5.91028H17.6667ZM1.71876 15.4968V13.5882L5.61501 5.91019H10.6925L8.49358 13.1323C8.46892 13.2134 8.45628 13.2978 8.45628 13.3827V15.4968C8.45628 17.3543 6.94498 18.8654 5.08735 18.8654C3.22989 18.8654 1.71876 17.3543 1.71876 15.4968ZM34.6157 38.5665H29.4593V35.9882V32.5507H30.3188C30.7934 32.5507 31.1782 32.1659 31.1782 31.6913C31.1782 31.2167 30.7934 30.8319 30.3188 30.8319H29.4593V24.8164H34.6157V38.5665ZM38.053 38.5665H36.3343V23.9571C36.3343 23.4825 35.9495 23.0977 35.4749 23.0977H28.5998H8.52495C8.05023 23.0977 7.66557 23.4825 7.66557 23.9571V35.9882C7.66557 36.4628 8.05023 36.8476 8.52495 36.8476H27.7406V38.5665H5.94673V20.5102C7.347 20.2708 8.55399 19.4585 9.31566 18.3226C10.2294 19.6852 11.7834 20.5842 13.5437 20.5842C15.3041 20.5842 16.858 19.6852 17.7718 18.3226C18.6856 19.6852 20.2396 20.5842 22 20.5842C23.7602 20.5842 25.3143 19.6853 26.2279 18.3226C27.1417 19.6853 28.6958 20.5842 30.4561 20.5842C32.2165 20.5842 33.7706 19.6852 34.6842 18.3226C35.4458 19.4585 36.6528 20.2708 38.053 20.5102V38.5665ZM17.7659 24.8164H20.76L19.1259 26.4503C18.7903 26.7858 18.7903 27.3299 19.1258 27.6656C19.2936 27.8334 19.5136 27.9174 19.7336 27.9174C19.9535 27.9174 20.1733 27.8334 20.3411 27.6657L23.1908 24.8164H27.7405V35.1288H9.38433V33.198L17.7659 24.8164ZM9.38433 30.7673V24.8164H15.3352L9.38433 30.7673ZM42.2812 15.4968C42.2812 17.3543 40.77 18.8654 38.9126 18.8654C37.055 18.8654 35.5438 17.3543 35.5438 15.4968V13.3827C35.5438 13.2978 35.5313 13.2134 35.5065 13.1323L33.3076 5.91019H38.385L42.2812 13.5882V15.4968Z" fill="#F7FA00"/>
<path d="M17.9733 29.6776C18.1924 29.6776 18.4116 29.5943 18.5792 29.4277L18.5936 29.4134C18.9302 29.0789 18.9318 28.5347 18.5972 28.1981C18.2625 27.8615 17.7183 27.8598 17.3818 28.1946L17.3674 28.2088C17.0308 28.5434 17.0294 29.0876 17.3638 29.4242C17.5318 29.5931 17.7525 29.6776 17.9733 29.6776Z" fill="#F7FA00"/>
<path d="M0.87966 38.5662H0.859378C0.384744 38.5662 0 38.951 0 39.4255C0 39.9001 0.384744 40.2849 0.859378 40.2849H0.87966C1.35421 40.2849 1.73904 39.9001 1.73904 39.4255C1.73904 38.951 1.35429 38.5662 0.87966 38.5662Z" fill="#F7FA00"/>
<path d="M43.1406 38.5664H43.1203C42.6457 38.5664 42.261 38.9512 42.261 39.4258C42.261 39.9003 42.6457 40.2852 43.1203 40.2852H43.1406C43.6152 40.2852 44 39.9003 44 39.4258C44 38.9512 43.6152 38.5664 43.1406 38.5664Z" fill="#F7FA00"/>
</svg>
