<svg width="44" height="27" viewBox="0 0 44 27" fill="none" xmlns="http://www.w3.org/2000/svg">
<path d="M38.5 16.0928C38.1203 16.0928 37.8125 16.4007 37.8125 16.7803V21.5977H36.7187C36.4491 19.2131 34.2976 17.4987 31.9131 17.7682C29.9 17.9958 28.3113 19.5845 28.0837 21.5977H13.75V1.66016H37.8125V3.82234C37.8125 4.20202 38.1203 4.50984 38.5 4.50984C38.8797 4.50984 39.1875 4.20202 39.1875 3.82234V0.972656C39.1875 0.592984 38.8797 0.285156 38.5 0.285156H13.0625C12.6828 0.285156 12.375 0.592984 12.375 0.972656V1.66016H4.50175C2.77587 1.66239 1.37723 3.06094 1.375 4.78691V5.78516C1.375 6.16483 1.68283 6.47266 2.0625 6.47266H2.86206L2.3375 12.7736C0.964648 13.1309 0.0048125 14.3682 0 15.7869V21.5977C0 21.9773 0.307828 22.2852 0.6875 22.2852H2.07969C2.26815 24.7437 4.41401 26.5839 6.87251 26.3955C9.06907 26.2271 10.8144 24.4817 10.9828 22.2852C10.989 22.2852 10.9938 22.2886 11 22.2886H12.375C12.375 22.6683 12.6828 22.9761 13.0625 22.9761H28.1462C28.636 25.3261 30.9381 26.834 33.2881 26.3442C34.9808 25.9915 36.3034 24.6688 36.6561 22.9761H38.5C38.8797 22.9761 39.1875 22.6683 39.1875 22.2886V16.7803C39.1875 16.4006 38.8797 16.0928 38.5 16.0928ZM6.53125 25.0352C4.82264 25.0352 3.4375 23.65 3.4375 21.9414C3.4375 20.2328 4.82264 18.8477 6.53125 18.8477C8.23986 18.8477 9.625 20.2328 9.625 21.9414C9.62311 23.6492 8.23909 25.0333 6.53125 25.0352ZM12.375 20.9102H11C10.9597 20.9144 10.9198 20.9224 10.8811 20.9342C10.3281 18.532 7.93255 17.0329 5.53042 17.5858C3.87406 17.9671 2.57804 19.2559 2.18762 20.9102H1.375V15.7869C1.37612 14.8199 2.15978 14.0363 3.12675 14.0352H12.375V20.9102ZM12.375 12.6602H3.72625L4.24188 6.47266H12.375V12.6602ZM12.375 5.09766H2.75V4.78691C2.75112 3.81994 3.53478 3.03627 4.50175 3.03516H12.375V5.09766ZM35.368 22.2577C35.2797 23.8305 33.9771 25.0598 32.4019 25.0572H32.4012C30.9587 25.054 29.7271 24.0151 29.4807 22.5938C29.6012 22.3833 29.5874 22.1217 29.4456 21.9249C29.5375 20.2895 30.9378 19.0382 32.5732 19.13C34.2086 19.2219 35.46 20.6222 35.368 22.2577Z" fill="#F7FA00"/>
<path d="M37.8125 5.78516H28.1875C27.8078 5.78516 27.5 6.09298 27.5 6.47266C27.5 6.85233 27.8078 7.16016 28.1875 7.16016H37.8125C38.1922 7.16016 38.5 6.85233 38.5 6.47266C38.5 6.09298 38.1922 5.78516 37.8125 5.78516Z" fill="#F7FA00"/>
<path d="M39.1875 13.3477H24.0625C23.6828 13.3477 23.375 13.6555 23.375 14.0352C23.375 14.4148 23.6828 14.7227 24.0625 14.7227H39.1875C39.5672 14.7227 39.875 14.4148 39.875 14.0352C39.875 13.6555 39.5672 13.3477 39.1875 13.3477Z" fill="#F7FA00"/>
<path d="M37.8125 9.22266H30.25C29.8703 9.22266 29.5625 9.53048 29.5625 9.91016C29.5625 10.2898 29.8703 10.5977 30.25 10.5977H37.8125C38.1922 10.5977 38.5 10.2898 38.5 9.91016C38.5 9.53048 38.1922 9.22266 37.8125 9.22266Z" fill="#F7FA00"/>
<path d="M40.5625 7.16016H41.9375C42.3172 7.16016 42.625 6.85233 42.625 6.47266C42.625 6.09298 42.3172 5.78516 41.9375 5.78516H40.5625C40.1828 5.78516 39.875 6.09298 39.875 6.47266C39.875 6.85233 40.1828 7.16016 40.5625 7.16016Z" fill="#F7FA00"/>
<path d="M42.625 13.3477H41.25C40.8703 13.3477 40.5625 13.6555 40.5625 14.0352C40.5625 14.4148 40.8703 14.7227 41.25 14.7227H42.625C43.0047 14.7227 43.3125 14.4148 43.3125 14.0352C43.3125 13.6555 43.0047 13.3477 42.625 13.3477Z" fill="#F7FA00"/>
<path d="M43.3125 9.22266H40.5625C40.1828 9.22266 39.875 9.53048 39.875 9.91016C39.875 10.2898 40.1828 10.5977 40.5625 10.5977H43.3125C43.6922 10.5977 44 10.2898 44 9.91016C44 9.53048 43.6922 9.22266 43.3125 9.22266Z" fill="#F7FA00"/>
</svg>
