<svg width="30" height="25" viewBox="0 0 30 25" fill="none" xmlns="http://www.w3.org/2000/svg">
<path d="M29.0356 3.6604C27.9738 4.12615 26.8424 4.43487 25.6629 4.58477C26.8763 3.86026 27.8025 2.72176 28.2379 1.34948C27.1065 2.02402 25.8574 2.50048 24.5262 2.76637C23.4519 1.62251 21.9208 0.914062 20.2505 0.914062C17.0099 0.914062 14.4009 3.54441 14.4009 6.76899C14.4009 7.23296 14.4402 7.67908 14.5365 8.1038C9.67023 7.86646 5.36424 5.53412 2.47157 1.98119C1.96656 2.85738 1.67033 3.86026 1.67033 4.93988C1.67033 6.96707 2.71426 8.76406 4.27034 9.80442C3.32991 9.78657 2.40733 9.51355 1.62572 9.08348C1.62572 9.10133 1.62572 9.12453 1.62572 9.14773C1.62572 11.9922 3.65469 14.3549 6.31537 14.8992C5.83891 15.0294 5.31963 15.0919 4.78071 15.0919C4.40596 15.0919 4.02765 15.0705 3.67254 14.9919C4.43095 17.31 6.58305 19.0142 9.14202 19.0695C7.15052 20.6274 4.62189 21.566 1.88447 21.566C1.40444 21.566 0.944042 21.5446 0.483643 21.4857C3.07651 23.1578 6.14942 24.1125 9.46322 24.1125C20.2344 24.1125 26.1233 15.19 26.1233 7.45602C26.1233 7.19727 26.1144 6.94744 26.1019 6.6994C27.2636 5.87496 28.2397 4.84531 29.0356 3.6604Z" fill="white"/>
</svg>
