<svg width="44" height="45" viewBox="0 0 44 45" fill="none" xmlns="http://www.w3.org/2000/svg">
<path d="M42.5204 14.5048C42.4768 14.3919 42.4 14.2948 42.3001 14.2263C42.2002 14.1579 42.082 14.1213 41.9609 14.1213H41.1376C41.1082 14.1212 41.0789 14.1234 41.0498 14.1278L36.6932 14.1038H36.6897C36.5863 14.1038 36.4846 14.1305 36.3945 14.1814C36.3045 14.2323 36.2291 14.3056 36.1757 14.3942C36.1224 14.4829 36.0928 14.5838 36.0899 14.6872C36.0871 14.7906 36.111 14.893 36.1594 14.9844C37.9434 18.3676 38.4556 22.2782 37.603 26.0067C36.7504 29.7353 34.5896 33.0347 31.5125 35.3063C28.4355 37.578 24.646 38.6714 20.8318 38.3882C17.0175 38.105 13.4311 36.4639 10.7233 33.7627C8.01549 31.0615 6.36562 27.4792 6.07306 23.6656C5.78049 19.8521 6.8646 16.06 9.12871 12.9774C11.3928 9.89472 14.6869 7.7258 18.4133 6.86408C22.1397 6.00237 26.0516 6.50496 29.4392 8.28066L28.4735 9.24633C28.361 9.3589 28.2978 9.51153 28.2978 9.67067C28.2978 9.82981 28.361 9.98244 28.4735 10.095L30.7143 12.3361C30.8258 12.4478 30.977 12.5111 31.1348 12.5121L38.3696 12.5601H38.3737C38.4529 12.56 38.5312 12.5443 38.6043 12.5138C38.6774 12.4834 38.7437 12.4388 38.7995 12.3826C38.8553 12.3265 38.8994 12.2598 38.9293 12.1866C38.9593 12.1133 38.9745 12.0348 38.974 11.9557L38.9257 4.72091C38.9245 4.56315 38.8613 4.41217 38.7497 4.30068L36.5089 2.05959C36.3943 1.95102 36.2423 1.89051 36.0844 1.89051C35.9265 1.89051 35.7746 1.95102 35.6599 2.05959L33.8312 3.88869C29.4195 1.07463 24.1493 -0.0748109 18.9665 0.646717C13.7837 1.36824 9.02784 3.91349 5.55258 7.82554C2.07731 11.7376 0.110249 16.7603 0.00449679 21.992C-0.101255 27.2236 1.66123 32.3217 4.97557 36.371C8.2899 40.4203 12.939 43.1557 18.0884 44.086C23.2378 45.0164 28.5502 44.0809 33.0719 41.4474C37.5937 38.8139 41.0288 34.6549 42.7604 29.717C44.4921 24.7791 44.407 19.3856 42.5204 14.5048ZM22.0452 43.1595C18.8034 43.1612 15.6062 42.4035 12.71 40.947C9.81373 39.4906 7.29895 37.3759 5.36719 34.7724C3.43543 32.169 2.14041 29.1493 1.58593 25.9552C1.03145 22.7611 1.23293 19.4816 2.17422 16.3794C3.1155 13.2772 4.77042 10.4387 7.00633 8.09127C9.24225 5.74388 11.997 3.95292 15.0497 2.86193C18.1025 1.77094 21.3683 1.41026 24.5856 1.8088C27.8029 2.20734 30.882 3.35401 33.5763 5.15692C33.6918 5.23436 33.8306 5.26931 33.9689 5.25579C34.1073 5.24228 34.2368 5.18114 34.3351 5.08282L36.0846 3.3333L37.7267 4.97579L37.7693 11.3564L31.3887 11.3142L29.7465 9.6717L30.8494 8.56882C30.9142 8.50408 30.9633 8.42537 30.993 8.33871C31.0227 8.25205 31.0321 8.15975 31.0206 8.06889C31.0091 7.97802 30.9769 7.891 30.9265 7.81449C30.8762 7.73798 30.809 7.67402 30.73 7.62751C27.1987 5.55398 23.042 4.81244 19.0115 5.53699C14.9811 6.26154 11.3429 8.40435 8.75482 11.578C6.16677 14.7515 4.7997 18.7465 4.90081 22.8403C5.00193 26.9341 6.56455 30.8567 9.30612 33.8986C12.0477 36.9406 15.7872 38.9012 19.8486 39.4259C23.9099 39.9506 28.0249 39.0047 31.4496 36.7594C34.8742 34.514 37.3824 31.1174 38.5206 27.1837C39.6588 23.25 39.3519 19.0388 37.6554 15.3117L41.1328 15.3309C41.163 15.3268 41.1966 15.3285 41.2278 15.324H41.5451C42.6873 18.4581 43.0565 21.8214 42.6214 25.1286C42.1863 28.4358 40.9598 31.5892 39.0459 34.3212C37.132 37.0532 34.5873 39.2831 31.6277 40.8218C28.6681 42.3604 25.3809 43.1624 22.0452 43.1595Z" fill="#F7FA00"/>
<path d="M28.8604 26.9489C28.9392 26.949 29.0173 26.9335 29.0902 26.9033C29.163 26.8732 29.2292 26.8289 29.285 26.7732C29.3407 26.7174 29.3849 26.6512 29.4151 26.5784C29.4452 26.5055 29.4607 26.4274 29.4607 26.3486V18.4607C29.4607 18.3015 29.3975 18.1488 29.2849 18.0362C29.1723 17.9236 29.0196 17.8604 28.8604 17.8604C28.7012 17.8604 28.5485 17.9236 28.4359 18.0362C28.3233 18.1488 28.26 18.3015 28.26 18.4607V21.8043H24.2255L25.9644 18.7581C26.0433 18.6198 26.064 18.4559 26.022 18.3024C25.9801 18.1489 25.8788 18.0183 25.7406 17.9394C25.6023 17.8605 25.4384 17.8398 25.2849 17.8818C25.1314 17.9238 25.0008 18.025 24.9219 18.1633L22.6705 22.1082C22.6183 22.1995 22.5911 22.3029 22.5914 22.4081C22.5918 22.5132 22.6198 22.6164 22.6726 22.7073C22.7254 22.7983 22.8012 22.8737 22.8923 22.9261C22.9835 22.9785 23.0868 23.0061 23.1919 23.006H28.26V26.3496C28.2602 26.5087 28.3236 26.6612 28.4361 26.7736C28.5487 26.8859 28.7013 26.949 28.8604 26.9489Z" fill="#F7FA00"/>
<path d="M20.8984 26.9489C21.0576 26.9489 21.2103 26.8857 21.3229 26.7731C21.4354 26.6605 21.4987 26.5078 21.4987 26.3486C21.4987 26.1894 21.4354 26.0367 21.3229 25.9241C21.2103 25.8115 21.0576 25.7483 20.8984 25.7483H15.8302V24.8968C15.8298 24.7157 15.8795 24.5381 15.9737 24.3834C16.068 24.2288 16.2032 24.1033 16.3644 24.0207L20.3128 21.9896C20.7488 21.7654 21.0968 21.4011 21.3008 20.9553C21.5048 20.5095 21.553 20.008 21.4376 19.5315C21.3222 19.055 21.0499 18.6311 20.6646 18.328C20.2792 18.0249 19.8031 17.8602 19.3128 17.8604H15.2306C15.1518 17.8603 15.0737 17.8758 15.0008 17.906C14.928 17.9361 14.8618 17.9803 14.806 18.0361C14.7503 18.0918 14.706 18.158 14.6759 18.2309C14.6457 18.3037 14.6302 18.3818 14.6303 18.4607V20.3502C14.6303 20.5094 14.6935 20.6621 14.8061 20.7746C14.9187 20.8872 15.0714 20.9505 15.2306 20.9505C15.3898 20.9505 15.5425 20.8872 15.6551 20.7746C15.7677 20.6621 15.8309 20.5094 15.8309 20.3502V19.061H19.3128C19.5337 19.0611 19.7481 19.1354 19.9217 19.2721C20.0952 19.4087 20.2178 19.5996 20.2698 19.8143C20.3218 20.029 20.3002 20.2549 20.2084 20.4557C20.1166 20.6566 19.9599 20.8208 19.7636 20.922L15.8152 22.9545C15.4574 23.1374 15.1573 23.4158 14.948 23.7588C14.7388 24.1018 14.6286 24.4961 14.6296 24.8979V26.3496C14.6296 26.4285 14.6451 26.5066 14.6752 26.5794C14.7054 26.6523 14.7496 26.7185 14.8053 26.7742C14.8611 26.83 14.9273 26.8742 15.0001 26.9043C15.073 26.9345 15.1511 26.95 15.2299 26.9499L20.8984 26.9489Z" fill="#F7FA00"/>
<path d="M22.0451 12.1578C22.124 12.1579 22.2021 12.1424 22.2749 12.1122C22.3478 12.0821 22.414 12.0378 22.4697 11.9821C22.5255 11.9263 22.5697 11.8601 22.5999 11.7873C22.63 11.7144 22.6455 11.6363 22.6455 11.5575V8.68382C22.6455 8.5246 22.5822 8.37191 22.4696 8.25933C22.3571 8.14674 22.2044 8.0835 22.0451 8.0835C21.8859 8.0835 21.7332 8.14674 21.6207 8.25933C21.5081 8.37191 21.4448 8.5246 21.4448 8.68382V11.5568C21.4447 11.6357 21.4601 11.7139 21.4902 11.7868C21.5203 11.8597 21.5645 11.926 21.6203 11.9818C21.6761 12.0377 21.7423 12.0819 21.8152 12.1121C21.8881 12.1423 21.9662 12.1579 22.0451 12.1578Z" fill="#F7FA00"/>
<path d="M22.0451 36.725C22.124 36.725 22.2021 36.7095 22.2749 36.6794C22.3478 36.6492 22.414 36.605 22.4697 36.5493C22.5255 36.4935 22.5697 36.4273 22.5999 36.3545C22.63 36.2816 22.6455 36.2035 22.6455 36.1247V33.2517C22.6455 33.0925 22.5822 32.9398 22.4696 32.8272C22.3571 32.7146 22.2044 32.6514 22.0451 32.6514C21.8859 32.6514 21.7332 32.7146 21.6207 32.8272C21.5081 32.9398 21.4448 33.0925 21.4448 33.2517V36.1247C21.4448 36.2035 21.4603 36.2816 21.4904 36.3545C21.5206 36.4273 21.5648 36.4935 21.6206 36.5493C21.6763 36.605 21.7425 36.6492 21.8154 36.6794C21.8882 36.7095 21.9663 36.725 22.0451 36.725Z" fill="#F7FA00"/>
<path d="M13.9494 15.1587C14.0619 15.2714 14.2147 15.3348 14.374 15.3349C14.5333 15.335 14.6862 15.2718 14.7989 15.1592C14.9116 15.0466 14.975 14.8938 14.9751 14.7345C14.9752 14.5752 14.912 14.4224 14.7994 14.3096L12.7679 12.2781C12.6553 12.1655 12.5026 12.1023 12.3434 12.1023C12.1842 12.1023 12.0315 12.1655 11.9189 12.2781C11.8063 12.3907 11.743 12.5434 11.743 12.7026C11.743 12.8619 11.8063 13.0146 11.9189 13.1272L13.9494 15.1587Z" fill="#F7FA00"/>
<path d="M31.3224 32.5307C31.3781 32.5865 31.4443 32.6307 31.5172 32.6609C31.59 32.691 31.6681 32.7066 31.7469 32.7066C31.8258 32.7066 31.9038 32.691 31.9767 32.6609C32.0495 32.6307 32.1157 32.5865 32.1714 32.5307C32.2272 32.475 32.2714 32.4088 32.3016 32.336C32.3317 32.2631 32.3473 32.1851 32.3473 32.1062C32.3473 32.0274 32.3317 31.9493 32.3016 31.8765C32.2714 31.8036 32.2272 31.7375 32.1714 31.6817L30.141 29.6502C30.0284 29.5376 29.8757 29.4744 29.7164 29.4744C29.5572 29.4744 29.4045 29.5376 29.2919 29.6502C29.1793 29.7628 29.1161 29.9155 29.1161 30.0747C29.1161 30.2339 29.1793 30.3866 29.2919 30.4992L31.3224 32.5307Z" fill="#F7FA00"/>
<path d="M12.3436 32.7065C12.4224 32.7066 12.5004 32.6911 12.5732 32.661C12.6461 32.6308 12.7122 32.5866 12.7679 32.5309L14.7994 30.4994C14.912 30.3866 14.9752 30.2338 14.9751 30.0745C14.975 29.9152 14.9116 29.7624 14.7989 29.6498C14.6862 29.5372 14.5333 29.474 14.374 29.4741C14.2147 29.4742 14.0619 29.5376 13.9494 29.6503L11.9179 31.6818C11.8339 31.7658 11.7768 31.8728 11.7537 31.9892C11.7305 32.1057 11.7425 32.2263 11.7879 32.336C11.8334 32.4457 11.9103 32.5394 12.009 32.6054C12.1078 32.6713 12.2238 32.7065 12.3425 32.7065H12.3436Z" fill="#F7FA00"/>
<path d="M11.1982 21.8042H8.32518C8.16596 21.8042 8.01327 21.8674 7.90068 21.98C7.7881 22.0926 7.72485 22.2453 7.72485 22.4045C7.72485 22.5637 7.7881 22.7164 7.90068 22.829C8.01327 22.9416 8.16596 23.0048 8.32518 23.0048H11.1982C11.3574 23.0048 11.5101 22.9416 11.6227 22.829C11.7352 22.7164 11.7985 22.5637 11.7985 22.4045C11.7985 22.2453 11.7352 22.0926 11.6227 21.98C11.5101 21.8674 11.3574 21.8042 11.1982 21.8042Z" fill="#F7FA00"/>
<path d="M32.8922 23.0048H35.7669C35.9261 23.0048 36.0788 22.9416 36.1914 22.829C36.3039 22.7164 36.3672 22.5637 36.3672 22.4045C36.3672 22.2453 36.3039 22.0926 36.1914 21.98C36.0788 21.8674 35.9261 21.8042 35.7669 21.8042H32.8922C32.7329 21.8042 32.5803 21.8674 32.4677 21.98C32.3551 22.0926 32.2918 22.2453 32.2918 22.4045C32.2918 22.5637 32.3551 22.7164 32.4677 22.829C32.5803 22.9416 32.7329 23.0048 32.8922 23.0048Z" fill="#F7FA00"/>
</svg>
