<svg width="27" height="27" viewBox="0 0 27 27" fill="none" xmlns="http://www.w3.org/2000/svg">
<g clip-path="url(#clip0)">
<path d="M24.1936 13.4168C23.9246 12.2481 22.9686 11.3859 21.8179 11.2576C19.0937 10.9533 16.3351 10.9519 13.5899 10.9533C10.8436 10.9519 8.08547 10.9533 5.3604 11.2576C4.21031 11.3862 3.25486 12.2484 2.98615 13.4168C2.60317 15.0811 2.59857 16.8978 2.59857 18.6115C2.59857 20.3251 2.59857 22.1415 2.98155 23.8058C3.25027 24.9743 4.20571 25.8364 5.35638 25.965C8.08088 26.2696 10.839 26.2708 13.585 26.2696C16.3313 26.2711 19.0888 26.2696 21.8142 25.965C22.9643 25.8364 23.9203 24.9743 24.189 23.8058C24.5717 22.1415 24.5737 20.3251 24.5737 18.6115C24.5735 16.8975 24.5763 15.0811 24.1936 13.4168ZM8.86665 14.7067H7.27616V23.1581H5.79879V14.7067H4.23729V13.3224H8.86665V14.7067ZM12.8793 23.1584H11.5504V22.3589C11.0224 22.9641 10.5212 23.2592 10.0328 23.2592C9.60477 23.2592 9.31021 23.0858 9.17729 22.7146C9.10494 22.4929 9.06015 22.1421 9.06015 21.6248V15.8295H10.388V21.2254C10.388 21.5366 10.388 21.6983 10.4 21.7419C10.4319 21.948 10.5326 22.0525 10.7106 22.0525C10.9771 22.0525 11.2555 21.8473 11.5501 21.4307V15.8295H12.879L12.8793 23.1584ZM17.9244 20.9587C17.9244 21.6366 17.8788 22.1249 17.79 22.4355C17.6126 22.9807 17.2575 23.2592 16.7292 23.2592C16.2567 23.2592 15.8008 22.9968 15.3567 22.4484V23.1587H14.0289V13.3224H15.3567V16.5346C15.7856 16.0067 16.2409 15.7397 16.7292 15.7397C17.2575 15.7397 17.6129 16.0179 17.79 16.5665C17.8793 16.8614 17.9244 17.346 17.9244 18.0399V20.9587ZM22.9362 19.736H20.2803V21.0351C20.2803 21.7135 20.5022 22.0523 20.9587 22.0523C21.2857 22.0523 21.476 21.8746 21.5518 21.5197C21.5642 21.4476 21.5817 21.1525 21.5817 20.62H22.9365V20.8137C22.9365 21.2418 22.9201 21.5366 22.908 21.6693C22.8635 21.9633 22.759 22.23 22.598 22.4648C22.2302 22.9971 21.6853 23.2595 20.9917 23.2595C20.2969 23.2595 19.7681 23.0094 19.3843 22.509C19.1026 22.1421 18.9579 21.5645 18.9579 20.7856V18.2187C18.9579 17.4352 19.0863 16.8622 19.3685 16.4919C19.752 15.9903 20.2806 15.7405 20.959 15.7405C21.6253 15.7405 22.1536 15.9903 22.5256 16.4919C22.8038 16.8622 22.9367 17.4352 22.9367 18.2187V19.736H22.9362Z" fill="white"/>
<path d="M20.9469 16.9353C20.5031 16.9353 20.2806 17.2744 20.2806 17.9519V18.63H21.6084V17.9519C21.6081 17.2744 21.3862 16.9353 20.9469 16.9353Z" fill="white"/>
<path d="M16.0187 16.9353C15.7999 16.9353 15.5783 17.0387 15.3564 17.2583V21.7251C15.578 21.9474 15.7999 22.0524 16.0187 22.0524C16.4017 22.0524 16.5963 21.7251 16.5963 21.0634V17.9352C16.5963 17.2744 16.4017 16.9353 16.0187 16.9353Z" fill="white"/>
<path d="M16.7606 10.2778C17.25 10.2778 17.7593 9.98042 18.2936 9.36834V10.1762H19.6358V2.76953H18.2936V8.43041C17.9962 8.85071 17.7143 9.05857 17.4458 9.05857C17.2661 9.05857 17.1605 8.95234 17.1312 8.7442C17.1148 8.70028 17.1148 8.53692 17.1148 8.22256V2.76953H15.777V8.62621C15.777 9.14929 15.8218 9.50327 15.8958 9.72749C16.0308 10.1027 16.3285 10.2778 16.7606 10.2778Z" fill="white"/>
<path d="M7.41711 6.15083V10.1761H8.90539V6.15083L10.6957 0.237305H9.19076L8.17532 4.14032L7.11882 0.237305H5.55273C5.86653 1.15858 6.19295 2.08445 6.50674 3.00659C6.98417 4.39267 7.28218 5.43769 7.41711 6.15083Z" fill="white"/>
<path d="M12.6904 10.2778C13.3628 10.2778 13.8853 10.0249 14.2559 9.51961C14.5376 9.14898 14.6725 8.56503 14.6725 7.77782V5.18424C14.6725 4.39244 14.5379 3.81366 14.2559 3.43958C13.8853 2.93286 13.3631 2.67993 12.6904 2.67993C12.0215 2.67993 11.4993 2.93286 11.1278 3.43958C10.8427 3.81366 10.7078 4.39244 10.7078 5.18424V7.77782C10.7078 8.56503 10.8427 9.14898 11.1278 9.51961C11.499 10.0249 12.0215 10.2778 12.6904 10.2778ZM12.0499 4.91523C12.0499 4.22994 12.2578 3.8883 12.6904 3.8883C13.1231 3.8883 13.3303 4.22965 13.3303 4.91523V8.03075C13.3303 8.71604 13.1231 9.05883 12.6904 9.05883C12.2578 9.05883 12.0499 8.71604 12.0499 8.03075V4.91523Z" fill="white"/>
</g>
<defs>
<clipPath id="clip0">
<rect width="26.0326" height="26.0326" fill="white" transform="translate(0.569702 0.237305)"/>
</clipPath>
</defs>
</svg>
